<!-- icon666.com - MILLIONS vector ICONS FREE --><svg clip-rule="evenodd" fill-rule="evenodd" image-rendering="optimizeQuality" shape-rendering="geometricPrecision" text-rendering="geometricPrecision" viewBox="0 0 1706.66 1706.66" xmlns="http://www.w3.org/2000/svg" xmlns:xodm="http://www.corel.com/coreldraw/odm/2003"><g id="Layer_x0020_1"><path d="m1560.55 473.12h-418.47c-91.94 0-134.14-98.56-63.89-148.61 5.79-63.67 72.63-109.61 148.06-103.2 40.23-102.76 215.91-101.44 254.58 1.81 80.74-14.67 161.67 36.69 161.67 110 0 2.64-.14 5.28-.28 7.78 11.39 14.03 17.5 30.69 17.5 47.92-.13 46.53-44.58 84.31-99.16 84.31zm-349.03-212.5c-52.07 0-94.53 32.66-93.75 74.44.44 23.67-34.72 20.37-34.72 53.75 0 24.03 27.08 44.31 59.03 44.31h418.47c46.2 0 77.76-40.85 46.53-71.25-9.61-9.35-4.86-18.07-4.86-28.89 0-52.76-69.42-86.34-129.86-66.81-12.11 3.91-24.3-4.2-25.97-16.39-11.61-84.31-170.95-86.72-186.25-2.64-4.48 24.59-30.86 13.47-48.61 13.47z"></path><path d="m1260.97 1053.26h-157.78c-17.85 0-26.62-21.72-14.17-34.17l115.28-115.28h-112.23c-26.3 0-26.3-40 0-40h160.56c17.85 0 26.62 21.72 14.17 34.17l-115.28 115.28h109.45c26.31 0 26.31 40 0 40z"></path><path d="m1473.75 907.15h-157.78c-17.85 0-26.62-21.72-14.17-34.17l115.28-115.28h-112.22c-26.35 0-26.35-40 0-40h160.56c17.85 0 26.62 21.72 14.17 34.17l-115.28 115.28h109.45c26.23 0 26.39 40 0 40z"></path><path d="m1686.66 760.9h-157.78c-17.85 0-26.62-21.72-14.17-34.17l115.28-115.28h-112.22c-26.35 0-26.35-40 0-40h160.56c17.85 0 26.62 21.72 14.17 34.17l-115.28 115.28h109.44c26.33 0 26.33 40 0 40z"></path><path d="m517.5 1466.31h-418.47c-91.94 0-134.14-98.56-63.89-148.61 5.79-63.67 72.63-109.61 148.06-103.2 40.23-102.76 215.91-101.44 254.58 1.81 80.74-14.67 161.67 36.69 161.67 110 0 2.64-.14 5.28-.28 7.92 11.39 14.03 17.5 30.69 17.5 47.92-.14 46.39-44.58 84.17-99.17 84.17zm-349.03-212.5c-52.07 0-94.53 32.66-93.75 74.44.44 23.67-34.72 20.37-34.72 53.75 0 24.03 27.08 44.31 59.03 44.31h418.47c46.43 0 77.68-40.93 46.53-71.25-9.58-9.33-4.72-17.8-4.72-28.89 0-52.76-69.42-86.34-129.86-66.81-12.14 3.93-24.32-4.25-25.97-16.39-11.44-84.26-170.94-86.77-186.25-2.64-4.48 24.6-30.9 13.47-48.75 13.47z"></path><path d="m360.18 1145.99c34.7 11.29 64.27 34.76 77.59 70.32 80.74-14.67 161.67 36.69 161.67 110 0 2.64-.14 5.28-.28 7.92.38 1.18 35.26 40.2 5.85 87.34-11.24 17.93-29.83 32.04-52.38 39.33 264.74 122.94 582.44 54.78 777.5-160.7-494.08-94.93-715.28-659.56-418.75-1064.86-102.5-8.61-206.81 6.53-303.89 44.72-348.54 137.11-521.82 532.71-364.61 872.54 37.74-17.78 78.15-18.54 117.3-6.62z" fill="#ccc"></path><path d="m1142.08 433.12h418.47c46.2 0 77.76-40.85 46.53-71.25-9.61-9.35-4.86-18.07-4.86-28.89 0-52.76-69.42-86.34-129.86-66.81-12.11 3.91-24.3-4.2-25.97-16.39-11.61-84.31-170.95-86.72-186.25-2.64-4.48 24.59-30.86 13.47-48.61 13.47-52.07 0-94.53 32.66-93.75 74.44.44 23.67-34.72 20.37-34.72 53.75 0 24.03 27.08 44.31 59.03 44.31z" fill="#008eb2"></path><path d="m559.3 1326.18c0-52.76-69.42-86.34-129.86-66.81-12.14 3.93-24.32-4.25-25.97-16.39-11.44-84.26-170.94-86.77-186.25-2.64-4.48 24.6-30.9 13.47-48.75 13.47-52.07 0-94.53 32.66-93.75 74.44.44 23.67-34.72 20.37-34.72 53.75 0 24.03 27.08 44.31 59.03 44.31h418.47c46.43 0 77.68-40.93 46.53-71.25-9.58-9.33-4.72-17.8-4.72-28.89z" fill="#008eb2"></path><path d="m829.02 1562.01c-124.31 0-247.08-33.06-356.81-98.47-17.39-10.31-9.91-37.22 10.28-37.22h35c46.44 0 77.67-40.94 46.53-71.25-9.59-9.33-4.72-17.9-4.72-28.89 0-52.76-69.42-86.34-129.86-66.81-12.14 3.93-24.32-4.25-25.97-16.39-8.03-59.14-101.06-86.5-157.22-45.56-9.91 7.22-23.98 3.67-29.58-7.22-183.22-355.98-5.39-797.35 376.25-947.36 114.44-45 238.47-60 358.75-43.19 15.24 2.11 22.62 20.34 12.78 32.5-147.36 180.97-186.94 425.42-103.47 637.92 83.61 212.5 279.03 364.31 510.28 396.53 15.23 2.11 22.63 20.33 12.78 32.5-134.44 166.07-342.63 262.92-555 262.92zm-276.39-101.11c264.74 122.94 582.44 54.78 777.5-160.7-494.08-94.93-715.28-659.56-418.75-1064.86-102.5-8.61-206.81 6.53-303.89 44.72-348.67 137.17-521.94 533-364.44 872.91 72.16-35.09 168.42-6.89 194.72 63.33 80.74-14.67 161.67 36.69 161.67 110 0 2.64-.14 5.28-.28 7.92 11.39 14.03 17.5 30.69 17.5 47.92-.13 35.83-26.66 66.67-64.02 78.75z"></path></g></svg>